<svg width="6" height="12" viewBox="0 0 6 12" fill="none" xmlns="http://www.w3.org/2000/svg">
<path d="M0.930023 5.41057L0.925572 5.41684L0.921516 5.42337C0.808856 5.6048 0.75 5.80293 0.75 6.01348C0.75 6.22437 0.809241 6.41924 0.930023 6.58943L4.0242 10.9494C4.13793 11.1315 4.31252 11.25 4.53879 11.25C4.76481 11.25 4.94283 11.1322 5.06785 10.956C5.18863 10.7858 5.24787 10.591 5.24787 10.3801C5.24787 10.1692 5.18863 9.97429 5.06785 9.8041L2.37776 6.01348L5.06785 2.22285C5.20062 2.03577 5.26487 1.82563 5.2471 1.60029C5.23159 1.40357 5.17644 1.2213 5.07756 1.05876C4.96399 0.87204 4.78757 0.75 4.55792 0.75C4.3319 0.75 4.15388 0.867822 4.02885 1.04399L0.930023 5.41057Z" fill="white" stroke="white" stroke-width="0.5"/>
</svg>
