<svg width="6" height="12" viewBox="0 0 6 12" fill="none" xmlns="http://www.w3.org/2000/svg">
<path d="M5.06998 5.41057L5.07443 5.41684L5.07848 5.42337C5.19114 5.6048 5.25 5.80293 5.25 6.01348C5.25 6.22437 5.19076 6.41924 5.06998 6.58943L1.9758 10.9494C1.86207 11.1315 1.68748 11.25 1.46121 11.25C1.23519 11.25 1.05717 11.1322 0.932148 10.956C0.811366 10.7858 0.752126 10.591 0.752126 10.3801C0.752126 10.1692 0.811366 9.97429 0.932148 9.8041L3.62224 6.01348L0.932148 2.22285C0.799378 2.03577 0.735131 1.82563 0.752899 1.60029C0.768412 1.40357 0.823564 1.2213 0.922437 1.05876C1.03601 0.87204 1.21243 0.75 1.44208 0.75C1.6681 0.75 1.84612 0.867822 1.97115 1.04399L5.06998 5.41057Z" fill="white" stroke="white" stroke-width="0.5"/>
</svg>
